{"glyphs":{"0":{"ha":728,"x_min":null,"x_max":null,"o":"m 42 99 l 140 0 l 588 0 l 686 99 l 686 764 l 588 863 l 140 863 l 42 764 z m 239 169 l 239 693 l 260 714 l 468 714 l 489 693 l 489 169 l 468 149 l 260 149 z "},"1":{"ha":419,"x_min":null,"x_max":null,"o":"m 42 0 l 378 0 l 378 149 l 308 149 l 308 863 l 140 863 l 42 764 l 42 575 l 111 575 l 111 149 l 42 149 z "},"2":{"ha":728,"x_min":null,"x_max":null,"o":"m 686 0 l 686 288 l 489 288 l 489 149 l 239 149 l 239 336 l 260 357 l 588 357 l 686 456 l 686 764 l 588 863 l 140 863 l 42 764 l 42 575 l 239 575 l 239 693 l 260 714 l 468 714 l 489 693 l 489 526 l 468 506 l 140 506 l 42 407 l 42 0 z "},"3":{"ha":728,"x_min":null,"x_max":null,"o":"m 239 575 l 239 693 l 260 714 l 468 714 l 489 693 l 489 526 l 468 506 l 239 506 l 239 357 l 468 357 l 489 336 l 489 169 l 468 149 l 260 149 l 239 169 l 239 288 l 42 288 l 42 99 l 140 0 l 588 0 l 686 99 l 686 379 l 635 431 l 686 483 l 686 764 l 588 863 l 140 863 l 42 764 l 42 575 z "},"4":{"ha":786,"x_min":null,"x_max":null,"o":"m 42 218 l 478 218 l 478 149 l 408 149 l 408 0 l 744 0 l 744 149 l 675 149 l 675 218 l 744 218 l 744 367 l 675 367 l 675 863 l 372 863 l 42 367 z m 243 367 l 478 714 l 478 367 z "},"5":{"ha":728,"x_min":null,"x_max":null,"o":"m 686 863 l 42 863 l 42 456 l 140 357 l 468 357 l 489 336 l 489 169 l 468 149 l 260 149 l 239 169 l 239 288 l 42 288 l 42 99 l 140 0 l 588 0 l 686 99 l 686 407 l 588 506 l 260 506 l 239 526 l 239 714 l 489 714 l 489 575 l 686 575 z "},"6":{"ha":728,"x_min":null,"x_max":null,"o":"m 489 575 l 686 575 l 686 764 l 588 863 l 140 863 l 42 764 l 42 99 l 140 0 l 588 0 l 686 99 l 686 407 l 588 506 l 239 506 l 239 693 l 260 714 l 468 714 l 489 693 z m 468 357 l 489 336 l 489 169 l 468 149 l 260 149 l 239 169 l 239 336 l 260 357 z "},"7":{"ha":704,"x_min":null,"x_max":null,"o":"m 181 0 l 517 0 l 517 149 l 447 149 l 663 714 l 663 863 l 42 863 l 42 603 l 239 603 l 239 714 l 465 714 l 250 149 l 181 149 z "},"8":{"ha":728,"x_min":null,"x_max":null,"o":"m 42 99 l 140 0 l 588 0 l 686 99 l 686 379 l 635 431 l 686 483 l 686 764 l 588 863 l 140 863 l 42 764 l 42 483 l 93 431 l 42 379 z m 239 526 l 239 693 l 260 714 l 468 714 l 489 693 l 489 526 l 468 506 l 260 506 z m 239 169 l 239 336 l 260 357 l 468 357 l 489 336 l 489 169 l 468 149 l 260 149 z "},"9":{"ha":728,"x_min":null,"x_max":null,"o":"m 239 288 l 42 288 l 42 99 l 140 0 l 588 0 l 686 99 l 686 764 l 588 863 l 140 863 l 42 764 l 42 456 l 140 357 l 489 357 l 489 169 l 468 149 l 260 149 l 239 169 z m 260 506 l 239 526 l 239 693 l 260 714 l 468 714 l 489 693 l 489 526 l 468 506 z "},"\u0000":{"ha":0,"x_min":null,"x_max":null,"o":""},"\r":{"ha":347,"x_min":null,"x_max":null,"o":""}," ":{"ha":347,"x_min":null,"x_max":null,"o":""},"!":{"ha":281,"x_min":null,"x_max":null,"o":"m 42 218 l 239 218 l 239 863 l 42 863 z m 42 0 l 239 0 l 239 149 l 42 149 z "},"\"":{"ha":504,"x_min":null,"x_max":null,"o":"m 328 575 l 421 575 l 463 863 l 286 863 z m 83 575 l 176 575 l 218 863 l 42 863 z "},"#":{"ha":961,"x_min":null,"x_max":null,"o":"m 103 0 l 300 0 l 350 208 l 503 208 l 453 0 l 650 0 l 700 208 l 847 208 l 847 357 l 736 357 l 772 506 l 919 506 l 919 654 l 808 654 l 858 863 l 661 863 l 611 654 l 458 654 l 508 863 l 311 863 l 261 654 l 114 654 l 114 506 l 225 506 l 189 357 l 42 357 l 42 208 l 153 208 z m 386 357 l 422 506 l 575 506 l 539 357 z "},"$":{"ha":728,"x_min":null,"x_max":null,"o":"m 42 99 l 140 0 l 289 0 l 289 -69 l 438 -69 l 438 0 l 588 0 l 686 99 l 686 407 l 588 506 l 438 506 l 438 714 l 468 714 l 489 693 l 489 575 l 686 575 l 686 764 l 588 863 l 438 863 l 438 932 l 289 932 l 289 863 l 140 863 l 42 764 l 42 456 l 140 357 l 289 357 l 289 149 l 260 149 l 239 169 l 239 288 l 42 288 z m 438 149 l 438 357 l 468 357 l 489 336 l 489 169 l 468 149 z m 239 526 l 239 693 l 260 714 l 289 714 l 289 506 l 260 506 z "},"%":{"ha":1113,"x_min":null,"x_max":null,"o":"m 251 0 l 382 0 l 861 863 l 731 863 z m 42 419 l 99 363 l 358 363 l 415 419 l 415 806 l 358 863 l 99 863 l 42 806 z m 156 461 l 156 764 l 168 776 l 289 776 l 301 764 l 301 461 l 289 449 l 168 449 z m 697 57 l 754 0 l 1014 0 l 1071 57 l 1071 443 l 1014 500 l 754 500 l 697 443 z m 811 99 l 811 401 l 824 414 l 944 414 l 957 401 l 957 99 l 944 86 l 824 86 z "},"&":{"ha":797,"x_min":null,"x_max":null,"o":"m 42 99 l 140 0 l 686 0 l 686 357 l 756 357 l 756 506 l 686 506 l 686 644 l 489 644 l 489 506 l 260 506 l 239 526 l 239 693 l 260 714 l 686 714 l 686 863 l 140 863 l 42 764 l 42 483 l 93 431 l 42 379 z m 239 169 l 239 336 l 260 357 l 489 357 l 489 149 l 260 149 z "},"'":{"ha":260,"x_min":null,"x_max":null,"o":"m 83 575 l 176 575 l 218 863 l 42 863 z "},"(":{"ha":472,"x_min":null,"x_max":null,"o":"m 42 522 l 42 340 l 150 0 l 431 0 l 431 149 l 300 149 l 239 340 l 239 522 l 300 714 l 431 714 l 431 863 l 150 863 z "},")":{"ha":472,"x_min":null,"x_max":null,"o":"m 431 522 l 322 863 l 42 863 l 42 714 l 172 714 l 233 522 l 233 340 l 172 149 l 42 149 l 42 0 l 322 0 l 431 340 z "},"*":{"ha":578,"x_min":null,"x_max":null,"o":"m 92 446 l 249 368 l 289 500 l 329 368 l 486 446 l 392 578 l 536 569 l 518 743 l 349 697 l 376 863 l 200 863 l 228 699 l 60 743 l 42 569 l 186 578 z "},"+":{"ha":472,"x_min":null,"x_max":null,"o":"m 42 357 l 163 357 l 163 236 l 311 236 l 311 357 l 431 357 l 431 506 l 311 506 l 311 625 l 163 625 l 163 506 l 42 506 z "},",":{"ha":297,"x_min":null,"x_max":null,"o":"m 0 -139 l 93 -139 l 256 149 l 79 149 z "},"-":{"ha":472,"x_min":null,"x_max":null,"o":"m 42 357 l 431 357 l 431 506 l 42 506 z "},".":{"ha":281,"x_min":null,"x_max":null,"o":"m 42 0 l 239 0 l 239 149 l 42 149 z "},"/":{"ha":489,"x_min":null,"x_max":null,"o":"m 42 0 l 239 0 l 447 863 l 250 863 z "},":":{"ha":281,"x_min":null,"x_max":null,"o":"m 42 0 l 239 0 l 239 149 l 42 149 z m 42 357 l 239 357 l 239 506 l 42 506 z "},";":{"ha":304,"x_min":null,"x_max":null,"o":"m 65 357 l 263 357 l 263 506 l 65 506 z m 0 -139 l 93 -139 l 256 149 l 79 149 z "},"<":{"ha":567,"x_min":null,"x_max":null,"o":"m 42 344 l 525 68 l 525 243 l 190 425 l 525 607 l 525 782 l 42 506 z "},"=":{"ha":472,"x_min":null,"x_max":null,"o":"m 42 413 l 431 413 l 431 561 l 42 561 z m 42 194 l 431 194 l 431 343 l 42 343 z "},">":{"ha":567,"x_min":null,"x_max":null,"o":"m 525 344 l 525 506 l 42 782 l 42 607 l 376 425 l 42 243 l 42 68 z "},"?":{"ha":728,"x_min":null,"x_max":null,"o":"m 167 218 l 364 218 l 364 336 l 385 357 l 588 357 l 686 456 l 686 764 l 588 863 l 140 863 l 42 764 l 42 575 l 239 575 l 239 693 l 260 714 l 468 714 l 489 693 l 489 526 l 468 506 l 265 506 l 167 407 z m 167 0 l 364 0 l 364 149 l 167 149 z "},"@":{"ha":833,"x_min":null,"x_max":null,"o":"m 42 99 l 140 0 l 792 0 l 792 149 l 211 149 l 190 169 l 190 693 l 211 714 l 622 714 l 643 693 l 643 306 l 622 285 l 583 285 l 583 654 l 301 654 l 250 603 l 250 260 l 301 208 l 693 208 l 792 307 l 792 764 l 693 863 l 140 863 l 42 764 z m 351 296 l 351 567 l 363 578 l 482 578 l 482 285 l 363 285 z "},"A":{"ha":903,"x_min":null,"x_max":null,"o":"m 183 714 l 253 714 l 111 149 l 42 149 l 42 0 l 382 0 l 382 149 l 313 149 l 347 292 l 556 292 l 590 149 l 521 149 l 521 0 l 861 0 l 861 149 l 792 149 l 650 714 l 719 714 l 719 863 l 183 863 z m 451 714 l 518 440 l 385 440 z "},"B":{"ha":797,"x_min":null,"x_max":null,"o":"m 42 714 l 111 714 l 111 149 l 42 149 l 42 0 l 657 0 l 756 99 l 756 379 l 704 431 l 756 483 l 756 764 l 657 863 l 42 863 z m 308 714 l 538 714 l 558 693 l 558 526 l 538 506 l 308 506 z m 308 357 l 538 357 l 558 336 l 558 169 l 538 149 l 308 149 z "},"C":{"ha":728,"x_min":null,"x_max":null,"o":"m 42 99 l 140 0 l 588 0 l 686 99 l 686 357 l 489 357 l 489 169 l 468 149 l 260 149 l 239 169 l 239 693 l 260 714 l 468 714 l 489 693 l 489 506 l 686 506 l 686 764 l 588 863 l 140 863 l 42 764 z "},"D":{"ha":797,"x_min":null,"x_max":null,"o":"m 42 714 l 111 714 l 111 149 l 42 149 l 42 0 l 657 0 l 756 99 l 756 764 l 657 863 l 42 863 z m 308 714 l 538 714 l 558 693 l 558 169 l 538 149 l 308 149 z "},"E":{"ha":769,"x_min":null,"x_max":null,"o":"m 531 260 l 531 149 l 308 149 l 308 357 l 658 357 l 658 506 l 308 506 l 308 714 l 531 714 l 531 603 l 728 603 l 728 863 l 42 863 l 42 714 l 111 714 l 111 149 l 42 149 l 42 0 l 728 0 l 728 260 z "},"F":{"ha":769,"x_min":null,"x_max":null,"o":"m 42 714 l 111 714 l 111 149 l 42 149 l 42 0 l 378 0 l 378 149 l 308 149 l 308 357 l 658 357 l 658 506 l 308 506 l 308 714 l 531 714 l 531 603 l 728 603 l 728 863 l 42 863 z "},"G":{"ha":728,"x_min":null,"x_max":null,"o":"m 42 99 l 140 0 l 588 0 l 686 99 l 686 506 l 308 506 l 308 357 l 489 357 l 489 169 l 468 149 l 260 149 l 239 169 l 239 693 l 260 714 l 468 714 l 489 693 l 489 575 l 686 575 l 686 764 l 588 863 l 140 863 l 42 764 z "},"H":{"ha":867,"x_min":null,"x_max":null,"o":"m 42 0 l 378 0 l 378 149 l 308 149 l 308 357 l 558 357 l 558 149 l 489 149 l 489 0 l 825 0 l 825 149 l 756 149 l 756 714 l 825 714 l 825 863 l 489 863 l 489 714 l 558 714 l 558 506 l 308 506 l 308 714 l 378 714 l 378 863 l 42 863 l 42 714 l 111 714 l 111 149 l 42 149 z "},"I":{"ha":419,"x_min":null,"x_max":null,"o":"m 42 0 l 378 0 l 378 149 l 308 149 l 308 714 l 378 714 l 378 863 l 42 863 l 42 714 l 111 714 l 111 149 l 42 149 z "},"J":{"ha":756,"x_min":null,"x_max":null,"o":"m 644 99 l 644 714 l 714 714 l 714 863 l 378 863 l 378 714 l 447 714 l 447 169 l 426 149 l 260 149 l 239 169 l 239 357 l 42 357 l 42 99 l 140 0 l 546 0 z "},"K":{"ha":867,"x_min":null,"x_max":null,"o":"m 42 0 l 378 0 l 378 149 l 308 149 l 308 357 l 357 357 l 524 149 l 454 149 l 454 0 l 825 0 l 825 149 l 756 149 l 529 432 l 756 714 l 825 714 l 825 863 l 454 863 l 454 714 l 524 714 l 357 506 l 308 506 l 308 714 l 378 714 l 378 863 l 42 863 l 42 714 l 111 714 l 111 149 l 42 149 z "},"L":{"ha":769,"x_min":null,"x_max":null,"o":"m 531 260 l 531 149 l 308 149 l 308 714 l 378 714 l 378 863 l 42 863 l 42 714 l 111 714 l 111 149 l 42 149 l 42 0 l 728 0 l 728 260 z "},"M":{"ha":1092,"x_min":null,"x_max":null,"o":"m 42 0 l 378 0 l 378 149 l 308 149 l 308 485 l 447 149 l 644 149 l 783 485 l 783 149 l 714 149 l 714 0 l 1050 0 l 1050 149 l 981 149 l 981 714 l 1050 714 l 1050 863 l 742 863 l 546 388 l 350 863 l 42 863 l 42 714 l 111 714 l 111 149 l 42 149 z "},"N":{"ha":867,"x_min":null,"x_max":null,"o":"m 42 0 l 378 0 l 378 149 l 308 149 l 308 494 l 517 0 l 756 0 l 756 714 l 825 714 l 825 863 l 489 863 l 489 714 l 558 714 l 558 368 l 350 863 l 42 863 l 42 714 l 111 714 l 111 149 l 42 149 z "},"O":{"ha":728,"x_min":null,"x_max":null,"o":"m 42 99 l 140 0 l 588 0 l 686 99 l 686 764 l 588 863 l 140 863 l 42 764 z m 239 169 l 239 693 l 260 714 l 468 714 l 489 693 l 489 169 l 468 149 l 260 149 z "},"P":{"ha":797,"x_min":null,"x_max":null,"o":"m 42 714 l 111 714 l 111 149 l 42 149 l 42 0 l 378 0 l 378 149 l 308 149 l 308 357 l 657 357 l 756 456 l 756 764 l 657 863 l 42 863 z m 308 714 l 538 714 l 558 693 l 558 526 l 538 506 l 308 506 z "},"Q":{"ha":728,"x_min":null,"x_max":null,"o":"m 42 99 l 140 0 l 289 0 l 289 -139 l 439 -139 l 439 0 l 588 0 l 686 99 l 686 764 l 588 863 l 140 863 l 42 764 z m 239 169 l 239 693 l 260 714 l 468 714 l 489 693 l 489 169 l 468 149 l 439 149 l 439 288 l 289 288 l 289 149 l 260 149 z "},"R":{"ha":867,"x_min":null,"x_max":null,"o":"m 42 714 l 111 714 l 111 149 l 42 149 l 42 0 l 378 0 l 378 149 l 308 149 l 308 357 l 440 357 l 539 149 l 469 149 l 469 0 l 825 0 l 825 149 l 756 149 l 657 357 l 756 456 l 756 764 l 657 863 l 42 863 z m 308 714 l 538 714 l 558 693 l 558 526 l 538 506 l 308 506 z "},"S":{"ha":728,"x_min":null,"x_max":null,"o":"m 42 99 l 140 0 l 588 0 l 686 99 l 686 407 l 588 506 l 260 506 l 239 526 l 239 693 l 260 714 l 468 714 l 489 693 l 489 575 l 686 575 l 686 764 l 588 863 l 140 863 l 42 764 l 42 456 l 140 357 l 468 357 l 489 336 l 489 169 l 468 149 l 260 149 l 239 169 l 239 288 l 42 288 z "},"T":{"ha":814,"x_min":null,"x_max":null,"o":"m 506 714 l 575 714 l 575 603 l 772 603 l 772 863 l 42 863 l 42 603 l 239 603 l 239 714 l 308 714 l 308 149 l 239 149 l 239 0 l 575 0 l 575 149 l 506 149 z "},"U":{"ha":867,"x_min":null,"x_max":null,"o":"m 756 99 l 756 714 l 825 714 l 825 863 l 489 863 l 489 714 l 558 714 l 558 169 l 538 149 l 329 149 l 308 169 l 308 714 l 378 714 l 378 863 l 42 863 l 42 714 l 111 714 l 111 99 l 210 0 l 657 0 z "},"V":{"ha":903,"x_min":null,"x_max":null,"o":"m 451 149 l 313 714 l 382 714 l 382 863 l 42 863 l 42 714 l 111 714 l 290 0 l 613 0 l 792 714 l 861 714 l 861 863 l 521 863 l 521 714 l 590 714 z "},"W":{"ha":1271,"x_min":null,"x_max":null,"o":"m 424 149 l 313 714 l 382 714 l 382 863 l 42 863 l 42 714 l 111 714 l 263 0 l 585 0 l 636 239 l 686 0 l 1008 0 l 1160 714 l 1229 714 l 1229 863 l 889 863 l 889 714 l 958 714 l 847 149 l 736 714 l 806 714 l 806 863 l 465 863 l 465 714 l 535 714 z "},"X":{"ha":861,"x_min":null,"x_max":null,"o":"m 750 714 l 819 714 l 819 863 l 479 863 l 479 714 l 549 714 l 446 581 l 351 714 l 421 714 l 421 863 l 42 863 l 42 714 l 111 714 l 319 418 l 111 149 l 42 149 l 42 0 l 382 0 l 382 149 l 313 149 l 415 282 l 510 149 l 440 149 l 440 0 l 819 0 l 819 149 l 750 149 l 542 444 z "},"Y":{"ha":861,"x_min":null,"x_max":null,"o":"m 750 714 l 819 714 l 819 863 l 479 863 l 479 714 l 549 714 l 444 571 l 351 714 l 421 714 l 421 863 l 42 863 l 42 714 l 111 714 l 343 361 l 343 149 l 274 149 l 274 0 l 610 0 l 610 149 l 540 149 l 540 425 z "},"Z":{"ha":722,"x_min":null,"x_max":null,"o":"m 681 714 l 681 863 l 42 863 l 42 603 l 239 603 l 239 714 l 440 714 l 42 149 l 42 0 l 681 0 l 681 260 l 483 260 l 483 149 l 282 149 z "},"[":{"ha":419,"x_min":null,"x_max":null,"o":"m 42 0 l 378 0 l 378 149 l 239 149 l 239 714 l 378 714 l 378 863 l 42 863 z "},"\\":{"ha":489,"x_min":null,"x_max":null,"o":"m 447 0 l 239 863 l 42 863 l 250 0 z "},"]":{"ha":419,"x_min":null,"x_max":null,"o":"m 378 0 l 378 863 l 42 863 l 42 714 l 181 714 l 181 149 l 42 149 l 42 0 z "},"^":{"ha":547,"x_min":null,"x_max":null,"o":"m 354 863 l 193 863 l 42 508 l 203 508 l 274 675 l 344 508 l 506 508 z "},"_":{"ha":472,"x_min":null,"x_max":null,"o":"m 42 -149 l 431 -149 l 431 0 l 42 0 z "},"`":{"ha":410,"x_min":null,"x_max":null,"o":"m 275 575 l 368 575 l 246 863 l 42 863 z "},"a":{"ha":903,"x_min":null,"x_max":null,"o":"m 183 714 l 253 714 l 111 149 l 42 149 l 42 0 l 382 0 l 382 149 l 313 149 l 347 292 l 556 292 l 590 149 l 521 149 l 521 0 l 861 0 l 861 149 l 792 149 l 650 714 l 719 714 l 719 863 l 183 863 z m 451 714 l 518 440 l 385 440 z "},"b":{"ha":797,"x_min":null,"x_max":null,"o":"m 42 714 l 111 714 l 111 149 l 42 149 l 42 0 l 657 0 l 756 99 l 756 379 l 704 431 l 756 483 l 756 764 l 657 863 l 42 863 z m 308 714 l 538 714 l 558 693 l 558 526 l 538 506 l 308 506 z m 308 357 l 538 357 l 558 336 l 558 169 l 538 149 l 308 149 z "},"c":{"ha":728,"x_min":null,"x_max":null,"o":"m 42 99 l 140 0 l 588 0 l 686 99 l 686 357 l 489 357 l 489 169 l 468 149 l 260 149 l 239 169 l 239 693 l 260 714 l 468 714 l 489 693 l 489 506 l 686 506 l 686 764 l 588 863 l 140 863 l 42 764 z "},"d":{"ha":797,"x_min":null,"x_max":null,"o":"m 42 714 l 111 714 l 111 149 l 42 149 l 42 0 l 657 0 l 756 99 l 756 764 l 657 863 l 42 863 z m 308 714 l 538 714 l 558 693 l 558 169 l 538 149 l 308 149 z "},"e":{"ha":769,"x_min":null,"x_max":null,"o":"m 531 260 l 531 149 l 308 149 l 308 357 l 658 357 l 658 506 l 308 506 l 308 714 l 531 714 l 531 603 l 728 603 l 728 863 l 42 863 l 42 714 l 111 714 l 111 149 l 42 149 l 42 0 l 728 0 l 728 260 z "},"f":{"ha":769,"x_min":null,"x_max":null,"o":"m 42 714 l 111 714 l 111 149 l 42 149 l 42 0 l 378 0 l 378 149 l 308 149 l 308 357 l 658 357 l 658 506 l 308 506 l 308 714 l 531 714 l 531 603 l 728 603 l 728 863 l 42 863 z "},"g":{"ha":728,"x_min":null,"x_max":null,"o":"m 42 99 l 140 0 l 588 0 l 686 99 l 686 506 l 308 506 l 308 357 l 489 357 l 489 169 l 468 149 l 260 149 l 239 169 l 239 693 l 260 714 l 468 714 l 489 693 l 489 575 l 686 575 l 686 764 l 588 863 l 140 863 l 42 764 z "},"h":{"ha":867,"x_min":null,"x_max":null,"o":"m 42 0 l 378 0 l 378 149 l 308 149 l 308 357 l 558 357 l 558 149 l 489 149 l 489 0 l 825 0 l 825 149 l 756 149 l 756 714 l 825 714 l 825 863 l 489 863 l 489 714 l 558 714 l 558 506 l 308 506 l 308 714 l 378 714 l 378 863 l 42 863 l 42 714 l 111 714 l 111 149 l 42 149 z "},"i":{"ha":419,"x_min":null,"x_max":null,"o":"m 42 0 l 378 0 l 378 149 l 308 149 l 308 714 l 378 714 l 378 863 l 42 863 l 42 714 l 111 714 l 111 149 l 42 149 z "},"j":{"ha":756,"x_min":null,"x_max":null,"o":"m 644 99 l 644 714 l 714 714 l 714 863 l 378 863 l 378 714 l 447 714 l 447 169 l 426 149 l 260 149 l 239 169 l 239 357 l 42 357 l 42 99 l 140 0 l 546 0 z "},"k":{"ha":867,"x_min":null,"x_max":null,"o":"m 42 0 l 378 0 l 378 149 l 308 149 l 308 357 l 357 357 l 524 149 l 454 149 l 454 0 l 825 0 l 825 149 l 756 149 l 529 432 l 756 714 l 825 714 l 825 863 l 454 863 l 454 714 l 524 714 l 357 506 l 308 506 l 308 714 l 378 714 l 378 863 l 42 863 l 42 714 l 111 714 l 111 149 l 42 149 z "},"l":{"ha":769,"x_min":null,"x_max":null,"o":"m 531 260 l 531 149 l 308 149 l 308 714 l 378 714 l 378 863 l 42 863 l 42 714 l 111 714 l 111 149 l 42 149 l 42 0 l 728 0 l 728 260 z "},"m":{"ha":1092,"x_min":null,"x_max":null,"o":"m 42 0 l 378 0 l 378 149 l 308 149 l 308 485 l 447 149 l 644 149 l 783 485 l 783 149 l 714 149 l 714 0 l 1050 0 l 1050 149 l 981 149 l 981 714 l 1050 714 l 1050 863 l 742 863 l 546 388 l 350 863 l 42 863 l 42 714 l 111 714 l 111 149 l 42 149 z "},"n":{"ha":867,"x_min":null,"x_max":null,"o":"m 42 0 l 378 0 l 378 149 l 308 149 l 308 494 l 517 0 l 756 0 l 756 714 l 825 714 l 825 863 l 489 863 l 489 714 l 558 714 l 558 368 l 350 863 l 42 863 l 42 714 l 111 714 l 111 149 l 42 149 z "},"o":{"ha":728,"x_min":null,"x_max":null,"o":"m 42 99 l 140 0 l 588 0 l 686 99 l 686 764 l 588 863 l 140 863 l 42 764 z m 239 169 l 239 693 l 260 714 l 468 714 l 489 693 l 489 169 l 468 149 l 260 149 z "},"p":{"ha":797,"x_min":null,"x_max":null,"o":"m 42 714 l 111 714 l 111 149 l 42 149 l 42 0 l 378 0 l 378 149 l 308 149 l 308 357 l 657 357 l 756 456 l 756 764 l 657 863 l 42 863 z m 308 714 l 538 714 l 558 693 l 558 526 l 538 506 l 308 506 z "},"q":{"ha":728,"x_min":null,"x_max":null,"o":"m 42 99 l 140 0 l 289 0 l 289 -139 l 439 -139 l 439 0 l 588 0 l 686 99 l 686 764 l 588 863 l 140 863 l 42 764 z m 239 169 l 239 693 l 260 714 l 468 714 l 489 693 l 489 169 l 468 149 l 439 149 l 439 288 l 289 288 l 289 149 l 260 149 z "},"r":{"ha":867,"x_min":null,"x_max":null,"o":"m 42 714 l 111 714 l 111 149 l 42 149 l 42 0 l 378 0 l 378 149 l 308 149 l 308 357 l 440 357 l 539 149 l 469 149 l 469 0 l 825 0 l 825 149 l 756 149 l 657 357 l 756 456 l 756 764 l 657 863 l 42 863 z m 308 714 l 538 714 l 558 693 l 558 526 l 538 506 l 308 506 z "},"s":{"ha":728,"x_min":null,"x_max":null,"o":"m 42 99 l 140 0 l 588 0 l 686 99 l 686 407 l 588 506 l 260 506 l 239 526 l 239 693 l 260 714 l 468 714 l 489 693 l 489 575 l 686 575 l 686 764 l 588 863 l 140 863 l 42 764 l 42 456 l 140 357 l 468 357 l 489 336 l 489 169 l 468 149 l 260 149 l 239 169 l 239 288 l 42 288 z "},"t":{"ha":814,"x_min":null,"x_max":null,"o":"m 506 714 l 575 714 l 575 603 l 772 603 l 772 863 l 42 863 l 42 603 l 239 603 l 239 714 l 308 714 l 308 149 l 239 149 l 239 0 l 575 0 l 575 149 l 506 149 z "},"u":{"ha":867,"x_min":null,"x_max":null,"o":"m 756 99 l 756 714 l 825 714 l 825 863 l 489 863 l 489 714 l 558 714 l 558 169 l 538 149 l 329 149 l 308 169 l 308 714 l 378 714 l 378 863 l 42 863 l 42 714 l 111 714 l 111 99 l 210 0 l 657 0 z "},"v":{"ha":903,"x_min":null,"x_max":null,"o":"m 451 149 l 313 714 l 382 714 l 382 863 l 42 863 l 42 714 l 111 714 l 290 0 l 613 0 l 792 714 l 861 714 l 861 863 l 521 863 l 521 714 l 590 714 z "},"w":{"ha":1271,"x_min":null,"x_max":null,"o":"m 424 149 l 313 714 l 382 714 l 382 863 l 42 863 l 42 714 l 111 714 l 263 0 l 585 0 l 636 239 l 686 0 l 1008 0 l 1160 714 l 1229 714 l 1229 863 l 889 863 l 889 714 l 958 714 l 847 149 l 736 714 l 806 714 l 806 863 l 465 863 l 465 714 l 535 714 z "},"x":{"ha":861,"x_min":null,"x_max":null,"o":"m 750 714 l 819 714 l 819 863 l 479 863 l 479 714 l 549 714 l 446 581 l 351 714 l 421 714 l 421 863 l 42 863 l 42 714 l 111 714 l 319 418 l 111 149 l 42 149 l 42 0 l 382 0 l 382 149 l 313 149 l 415 282 l 510 149 l 440 149 l 440 0 l 819 0 l 819 149 l 750 149 l 542 444 z "},"y":{"ha":861,"x_min":null,"x_max":null,"o":"m 750 714 l 819 714 l 819 863 l 479 863 l 479 714 l 549 714 l 444 571 l 351 714 l 421 714 l 421 863 l 42 863 l 42 714 l 111 714 l 343 361 l 343 149 l 274 149 l 274 0 l 610 0 l 610 149 l 540 149 l 540 425 z "},"z":{"ha":722,"x_min":null,"x_max":null,"o":"m 681 714 l 681 863 l 42 863 l 42 603 l 239 603 l 239 714 l 440 714 l 42 149 l 42 0 l 681 0 l 681 260 l 483 260 l 483 149 l 282 149 z "},"{":{"ha":558,"x_min":null,"x_max":null,"o":"m 42 357 l 181 307 l 181 0 l 517 0 l 517 149 l 378 149 l 378 383 l 246 432 l 378 479 l 378 714 l 517 714 l 517 863 l 181 863 l 181 556 l 42 506 z "},"|":{"ha":281,"x_min":null,"x_max":null,"o":"m 42 -69 l 239 -69 l 239 932 l 42 932 z "},"}":{"ha":558,"x_min":null,"x_max":null,"o":"m 517 357 l 517 506 l 378 556 l 378 863 l 42 863 l 42 714 l 181 714 l 181 479 l 313 432 l 181 383 l 181 149 l 42 149 l 42 0 l 378 0 l 378 307 z "},"~":{"ha":554,"x_min":null,"x_max":null,"o":"m 42 290 l 199 383 l 356 290 l 513 383 l 513 551 l 356 458 l 199 551 l 42 458 z "},"¡":{"ha":281,"x_min":null,"x_max":null,"o":"m 42 644 l 42 0 l 239 0 l 239 644 z m 42 863 l 42 714 l 239 714 l 239 863 z "},"¢":{"ha":728,"x_min":null,"x_max":null,"o":"m 42 99 l 140 0 l 289 0 l 289 -69 l 438 -69 l 438 0 l 588 0 l 686 99 l 686 357 l 489 357 l 489 169 l 468 149 l 260 149 l 239 169 l 239 693 l 260 714 l 468 714 l 489 693 l 489 506 l 686 506 l 686 764 l 588 863 l 438 863 l 438 932 l 289 932 l 289 863 l 140 863 l 42 764 z "},"£":{"ha":797,"x_min":null,"x_max":null,"o":"m 558 260 l 558 149 l 308 149 l 308 357 l 435 357 l 435 506 l 308 506 l 308 693 l 329 714 l 538 714 l 558 693 l 558 506 l 756 506 l 756 764 l 657 863 l 210 863 l 111 764 l 111 506 l 42 506 l 42 357 l 111 357 l 111 149 l 42 149 l 42 0 l 756 0 l 756 260 z "},"¤":{"ha":794,"x_min":null,"x_max":null,"o":"m 146 75 l 279 208 l 515 208 l 649 75 l 753 181 l 618 315 l 618 547 l 753 682 l 649 788 l 515 654 l 279 654 l 146 788 l 42 682 l 176 547 l 176 315 l 42 181 z m 324 357 l 324 506 l 471 506 l 471 357 z "},"¥":{"ha":861,"x_min":null,"x_max":null,"o":"m 750 714 l 819 714 l 819 863 l 479 863 l 479 714 l 549 714 l 444 571 l 351 714 l 421 714 l 421 863 l 42 863 l 42 714 l 111 714 l 214 557 l 150 557 l 150 408 l 313 408 l 343 361 l 343 339 l 150 339 l 150 190 l 343 190 l 343 149 l 274 149 l 274 0 l 610 0 l 610 149 l 540 149 l 540 190 l 733 190 l 733 339 l 540 339 l 540 408 l 733 408 l 733 557 l 636 557 z "},"¦":{"ha":281,"x_min":null,"x_max":null,"o":"m 42 488 l 239 488 l 239 932 l 42 932 z m 42 -69 l 239 -69 l 239 375 l 42 375 z "},"§":{"ha":1085,"x_min":null,"x_max":null,"o":"m 42 99 l 140 0 l 588 0 l 686 99 l 944 99 l 1043 197 l 1043 463 l 944 561 l 617 561 l 596 582 l 596 693 l 617 714 l 825 714 l 846 693 l 846 603 l 1043 603 l 1043 764 l 944 863 l 497 863 l 399 764 l 140 764 l 42 665 l 42 400 l 140 301 l 468 301 l 489 281 l 489 169 l 468 149 l 260 149 l 239 169 l 239 260 l 42 260 z m 399 511 l 460 450 l 260 450 l 239 471 l 239 594 l 260 615 l 399 615 z m 686 247 l 686 351 l 625 413 l 825 413 l 846 392 l 846 268 l 825 247 z "},"¨":{"ha":547,"x_min":null,"x_max":null,"o":"m 42 714 l 239 714 l 239 863 l 42 863 z m 308 714 l 506 714 l 506 863 l 308 863 z "},"©":{"ha":833,"x_min":null,"x_max":null,"o":"m 42 99 l 140 0 l 693 0 l 792 99 l 792 764 l 693 863 l 140 863 l 42 764 z m 190 169 l 190 693 l 211 714 l 622 714 l 643 693 l 643 169 l 622 149 l 211 149 z m 250 260 l 301 208 l 532 208 l 583 260 l 583 393 l 482 393 l 482 296 l 471 285 l 363 285 l 351 296 l 351 567 l 363 578 l 471 578 l 482 567 l 482 469 l 583 469 l 583 603 l 532 654 l 301 654 l 250 603 z "},"ª":{"ha":564,"x_min":null,"x_max":null,"o":"m 125 775 l 165 775 l 82 444 l 42 444 l 42 357 l 242 357 l 242 444 l 200 444 l 221 528 l 342 528 l 363 444 l 322 444 l 322 357 l 522 357 l 522 444 l 481 444 l 399 775 l 439 775 l 439 863 l 125 863 z m 282 775 l 321 615 l 242 615 z "},"«":{"ha":794,"x_min":null,"x_max":null,"o":"m 388 425 l 753 68 l 753 278 l 594 425 l 753 572 l 753 782 z m 42 425 l 407 68 l 407 278 l 249 425 l 407 572 l 407 782 z "},"¬":{"ha":472,"x_min":null,"x_max":null,"o":"m 42 594 l 282 594 l 282 483 l 431 483 l 431 743 l 42 743 z "},"®":{"ha":833,"x_min":null,"x_max":null,"o":"m 42 99 l 140 0 l 693 0 l 792 99 l 792 764 l 693 863 l 140 863 l 42 764 z m 190 169 l 190 693 l 211 714 l 622 714 l 643 693 l 643 169 l 622 149 l 211 149 z m 250 208 l 353 208 l 353 393 l 419 393 l 472 208 l 583 208 l 532 393 l 583 444 l 583 603 l 532 654 l 250 654 z m 353 578 l 471 578 l 482 567 l 482 481 l 471 469 l 353 469 z "},"¯":{"ha":472,"x_min":null,"x_max":null,"o":"m 42 714 l 431 714 l 431 863 l 42 863 z "},"°":{"ha":525,"x_min":null,"x_max":null,"o":"m 42 863 l 42 417 l 483 417 l 483 863 z m 189 565 l 189 714 l 336 714 l 336 565 z "},"±":{"ha":472,"x_min":null,"x_max":null,"o":"m 42 467 l 163 467 l 163 346 l 311 346 l 311 467 l 431 467 l 431 615 l 311 615 l 311 735 l 163 735 l 163 615 l 42 615 z m 42 128 l 431 128 l 431 276 l 42 276 z "},"²":{"ha":461,"x_min":null,"x_max":null,"o":"m 419 357 l 419 525 l 304 525 l 304 444 l 157 444 l 157 554 l 169 567 l 361 567 l 419 624 l 419 804 l 361 863 l 100 863 l 42 804 l 42 694 l 157 694 l 157 763 l 169 775 l 292 775 l 304 763 l 304 665 l 292 653 l 100 653 l 42 596 l 42 357 z "},"³":{"ha":461,"x_min":null,"x_max":null,"o":"m 157 694 l 157 763 l 169 775 l 292 775 l 304 763 l 304 665 l 292 653 l 157 653 l 157 567 l 292 567 l 304 554 l 304 457 l 292 444 l 169 444 l 157 457 l 157 525 l 42 525 l 42 415 l 100 357 l 361 357 l 419 415 l 419 579 l 389 610 l 419 640 l 419 804 l 361 863 l 100 863 l 42 804 l 42 694 z "},"´":{"ha":410,"x_min":null,"x_max":null,"o":"m 135 575 l 368 863 l 164 863 l 42 575 z "},"¶":{"ha":925,"x_min":null,"x_max":null,"o":"m 617 714 l 617 0 l 883 0 l 883 149 l 814 149 l 814 714 l 883 714 l 883 863 l 140 863 l 42 764 l 42 456 l 140 357 l 350 357 l 350 149 l 281 149 l 281 0 l 547 0 l 547 714 z "},"·":{"ha":281,"x_min":null,"x_max":null,"o":"m 42 357 l 239 357 l 239 506 l 42 506 z "},"¸":{"ha":232,"x_min":null,"x_max":null,"o":"m 42 -249 l 190 -249 l 190 -328 l -35 -328 l -35 -476 l 338 -476 l 338 -100 l 190 -100 l 190 0 l 42 0 z "},"¹":{"ha":281,"x_min":null,"x_max":null,"o":"m 42 357 l 239 357 l 239 443 l 199 443 l 199 863 l 100 863 l 42 804 l 42 694 l 82 694 l 82 443 l 42 443 z "},"º":{"ha":461,"x_min":null,"x_max":null,"o":"m 42 414 l 100 357 l 361 357 l 419 414 l 419 804 l 361 863 l 100 863 l 42 804 z m 157 456 l 157 763 l 169 775 l 292 775 l 304 763 l 304 456 l 292 444 l 169 444 z "},"»":{"ha":794,"x_min":null,"x_max":null,"o":"m 407 425 l 42 782 l 42 572 l 200 425 l 42 278 l 42 68 z m 753 425 l 388 782 l 388 572 l 546 425 l 388 278 l 388 68 z "},"¼":{"ha":1038,"x_min":null,"x_max":null,"o":"m 583 128 l 839 128 l 839 88 l 799 88 l 799 0 l 996 0 l 996 88 l 954 88 l 954 128 l 996 128 l 996 215 l 954 215 l 954 506 l 778 506 l 583 215 z m 179 0 l 310 0 l 789 863 l 658 863 z m 42 357 l 239 357 l 239 443 l 199 443 l 199 863 l 100 863 l 42 804 l 42 694 l 82 694 l 82 443 l 42 443 z m 701 215 l 839 418 l 839 215 z "},"½":{"ha":1111,"x_min":null,"x_max":null,"o":"m 1069 0 l 1069 168 l 954 168 l 954 88 l 807 88 l 807 197 l 819 210 l 1011 210 l 1069 267 l 1069 447 l 1011 506 l 750 506 l 692 447 l 692 338 l 807 338 l 807 406 l 819 418 l 942 418 l 954 406 l 954 308 l 942 296 l 750 296 l 692 239 l 692 0 z m 179 0 l 310 0 l 789 863 l 658 863 z m 42 357 l 239 357 l 239 443 l 199 443 l 199 863 l 100 863 l 42 804 l 42 694 l 82 694 l 82 443 l 42 443 z "},"¾":{"ha":1179,"x_min":null,"x_max":null,"o":"m 725 128 l 981 128 l 981 88 l 940 88 l 940 0 l 1138 0 l 1138 88 l 1096 88 l 1096 128 l 1138 128 l 1138 215 l 1096 215 l 1096 506 l 919 506 l 725 215 z m 157 694 l 157 763 l 169 775 l 292 775 l 304 763 l 304 665 l 292 653 l 157 653 l 157 567 l 292 567 l 304 554 l 304 457 l 292 444 l 169 444 l 157 457 l 157 525 l 42 525 l 42 415 l 100 357 l 361 357 l 419 415 l 419 579 l 389 610 l 419 640 l 419 804 l 361 863 l 100 863 l 42 804 l 42 694 z m 321 0 l 451 0 l 931 863 l 800 863 z m 843 215 l 981 418 l 981 215 z "},"¿":{"ha":728,"x_min":null,"x_max":null,"o":"m 561 644 l 364 644 l 364 526 l 343 506 l 140 506 l 42 407 l 42 99 l 140 0 l 588 0 l 686 99 l 686 288 l 489 288 l 489 169 l 468 149 l 260 149 l 239 169 l 239 336 l 260 357 l 463 357 l 561 456 z m 561 863 l 364 863 l 364 714 l 561 714 z "},"ƒ":{"ha":769,"x_min":null,"x_max":null,"o":"m 42 714 l 111 714 l 111 149 l 42 149 l 42 0 l 378 0 l 378 149 l 308 149 l 308 357 l 658 357 l 658 506 l 308 506 l 308 714 l 531 714 l 531 603 l 728 603 l 728 863 l 42 863 z "},"ˆ":{"ha":547,"x_min":null,"x_max":null,"o":"m 354 863 l 193 863 l 42 508 l 203 508 l 274 675 l 344 508 l 506 508 z "},"ˇ":{"ha":547,"x_min":null,"x_max":null,"o":"m 354 508 l 506 863 l 344 863 l 274 696 l 203 863 l 42 863 l 193 508 z "},"˙":{"ha":281,"x_min":null,"x_max":null,"o":"m 42 714 l 239 714 l 239 863 l 42 863 z "},"˚":{"ha":525,"x_min":null,"x_max":null,"o":"m 42 863 l 42 417 l 483 417 l 483 863 z m 189 565 l 189 714 l 336 714 l 336 565 z "},"˛":{"ha":324,"x_min":null,"x_max":null,"o":"m 282 0 l 282 149 l 42 149 l 42 -228 l 407 -228 l 407 -79 l 189 -79 l 189 0 z "},"˜":{"ha":554,"x_min":null,"x_max":null,"o":"m 42 601 l 199 694 l 356 601 l 513 694 l 513 863 l 356 769 l 199 863 l 42 769 z "},"μ":{"ha":867,"x_min":null,"x_max":null,"o":"m 756 99 l 756 714 l 825 714 l 825 863 l 489 863 l 489 714 l 558 714 l 558 169 l 538 149 l 329 149 l 308 169 l 308 714 l 378 714 l 378 863 l 42 863 l 42 714 l 111 714 l 111 -139 l 308 -139 l 308 0 l 657 0 z "},"–":{"ha":611,"x_min":null,"x_max":null,"o":"m 42 357 l 569 357 l 569 506 l 42 506 z "},"—":{"ha":819,"x_min":null,"x_max":null,"o":"m 42 357 l 778 357 l 778 506 l 42 506 z "},"‘":{"ha":260,"x_min":null,"x_max":null,"o":"m 83 863 l 42 575 l 218 575 l 176 863 z "},"’":{"ha":260,"x_min":null,"x_max":null,"o":"m 83 575 l 176 575 l 218 863 l 42 863 z "},"‚":{"ha":297,"x_min":null,"x_max":null,"o":"m 0 -139 l 93 -139 l 256 149 l 79 149 z "},"“":{"ha":504,"x_min":null,"x_max":null,"o":"m 176 863 l 83 863 l 42 575 l 218 575 z m 421 863 l 328 863 l 286 575 l 463 575 z "},"”":{"ha":504,"x_min":null,"x_max":null,"o":"m 328 575 l 421 575 l 463 863 l 286 863 z m 83 575 l 176 575 l 218 863 l 42 863 z "},"„":{"ha":543,"x_min":null,"x_max":null,"o":"m 0 -139 l 93 -139 l 256 149 l 79 149 z m 246 -139 l 339 -139 l 501 149 l 325 149 z "},"†":{"ha":472,"x_min":null,"x_max":null,"o":"m 42 664 l 431 664 l 431 813 l 42 813 z m 163 932 l 163 -69 l 311 -69 l 311 932 z "},"•":{"ha":467,"x_min":null,"x_max":null,"o":"m 42 288 l 425 288 l 425 575 l 42 575 z "},"…":{"ha":814,"x_min":null,"x_max":null,"o":"m 42 0 l 239 0 l 239 149 l 42 149 z m 308 0 l 506 0 l 506 149 l 308 149 z m 575 0 l 772 0 l 772 149 l 575 149 z "},"‹":{"ha":449,"x_min":null,"x_max":null,"o":"m 42 425 l 407 68 l 407 278 l 249 425 l 407 572 l 407 782 z "},"›":{"ha":449,"x_min":null,"x_max":null,"o":"m 407 425 l 42 782 l 42 572 l 200 425 l 42 278 l 42 68 z "},"€":{"ha":797,"x_min":null,"x_max":null,"o":"m 111 99 l 210 0 l 657 0 l 756 99 l 756 357 l 558 357 l 558 169 l 538 149 l 329 149 l 308 169 l 308 247 l 431 247 l 431 396 l 308 396 l 308 465 l 431 465 l 431 614 l 308 614 l 308 693 l 329 714 l 538 714 l 558 693 l 558 506 l 756 506 l 756 764 l 657 863 l 210 863 l 111 764 l 111 614 l 42 614 l 42 465 l 111 465 l 111 396 l 42 396 l 42 247 l 111 247 z "},"™":{"ha":1151,"x_min":null,"x_max":null,"o":"m 519 357 l 717 357 l 717 444 l 675 444 l 675 643 l 757 444 l 872 444 l 954 643 l 954 444 l 913 444 l 913 357 l 1110 357 l 1110 444 l 1069 444 l 1069 775 l 1110 775 l 1110 863 l 929 863 l 815 585 l 700 863 l 519 863 l 519 775 l 560 775 l 560 444 l 519 444 z m 314 775 l 354 775 l 354 710 l 469 710 l 469 863 l 42 863 l 42 710 l 157 710 l 157 775 l 199 775 l 199 444 l 157 444 l 157 357 l 354 357 l 354 444 l 314 444 z "}}}
